<?xml version="1.0" standalone="no"?>
<!DOCTYPE svg PUBLIC "-//W3C//DTD SVG 20010904//EN"
 "http://www.w3.org/TR/2001/REC-SVG-20010904/DTD/svg10.dtd">
<svg version="1.0" xmlns="http://www.w3.org/2000/svg"
 width="196.000000pt" height="196.000000pt" viewBox="0 0 196.000000 196.000000"
 preserveAspectRatio="xMidYMid meet">
<metadata>
Created by potrace 1.11, written by Peter Selinger 2001-2013
</metadata>
<g transform="translate(0.000000,196.000000) scale(0.100000,-0.100000)"
fill="#000000" stroke="none">
<path d="M790 1824 c-91 -75 -239 -198 -330 -273 -91 -75 -178 -147 -193 -161
-92 -80 -88 -174 10 -256 26 -22 51 -39 57 -39 5 0 14 17 18 38 32 153 223
330 510 470 105 52 304 137 319 137 7 0 24 -80 36 -175 13 -94 9 -412 -6 -480
-36 -171 -99 -298 -180 -365 -51 -43 -116 -80 -139 -80 -11 0 -4 -11 23 -35
22 -19 43 -35 48 -36 4 -1 13 -2 20 -3 9 -1 93 58 117 84 3 3 41 35 85 70 44
36 93 77 110 91 16 15 116 97 220 184 105 86 201 170 214 187 34 43 39 107 12
151 -24 39 -21 36 -361 318 -135 111 -273 226 -308 256 -43 35 -73 53 -91 53
-20 0 -69 -35 -191 -136z"/>
<path d="M1025 1641 c-232 -100 -376 -186 -492 -294 -131 -122 -182 -248 -148
-362 l12 -40 0 61 c0 185 196 359 592 529 46 19 86 35 91 35 26 0 47 -368 28
-500 -21 -150 -74 -266 -154 -339 -60 -55 -60 -66 2 -25 122 81 192 211 224
412 14 86 17 281 6 397 -7 74 -23 176 -29 180 -1 2 -61 -23 -132 -54z"/>
<path d="M953 1330 c-164 -74 -320 -262 -409 -495 -29 -77 -75 -228 -70 -233
2 -1 14 23 26 55 107 270 267 482 445 585 68 39 74 46 75 76 0 37 -8 39 -67
12z"/>
<path d="M1275 689 c6 -9 3 -10 -10 -6 -9 4 -24 2 -31 -4 -15 -12 -19 -55 -6
-62 4 -3 7 9 7 25 0 17 5 33 11 35 7 2 9 -9 7 -29 -3 -22 -1 -29 5 -20 7 10
11 10 21 -2 10 -12 8 -15 -11 -19 -21 -4 -22 -4 -2 -6 12 0 27 6 34 15 11 12
11 15 0 12 -9 -2 -15 7 -15 25 -1 28 10 36 18 15 4 -10 6 -10 6 -1 1 7 -9 17
-20 24 -17 9 -20 8 -14 -2z m5 -29 c0 -5 -4 -10 -10 -10 -5 0 -10 5 -10 10 0
6 5 10 10 10 6 0 10 -4 10 -10z"/>
<path d="M416 448 c-7 -18 -49 -112 -91 -208 -43 -96 -84 -190 -91 -207 l-14
-33 44 0 c42 0 45 2 57 35 l13 35 97 0 98 0 12 -35 c12 -34 15 -35 62 -35 35
0 48 4 44 13 -3 6 -46 113 -96 236 -50 123 -91 226 -91 228 0 2 -7 3 -15 3 -8
0 -21 -15 -29 -32z m53 -218 c13 -38 23 -73 22 -77 0 -4 -28 -8 -61 -8 -33 -1
-59 2 -58 5 2 3 17 39 33 78 17 40 32 72 35 72 3 0 16 -31 29 -70z"/>
<path d="M710 231 l0 -231 129 0 c144 0 177 9 228 62 91 94 85 270 -11 343
-53 41 -103 52 -229 54 l-117 2 0 -230z m255 134 c70 -41 97 -134 62 -217 -23
-56 -67 -80 -153 -86 l-73 -5 -3 104 c-2 57 -2 132 0 167 l3 62 61 0 c47 0 71
-6 103 -25z"/>
<path d="M1219 428 c0 -18 -2 -40 -3 -48 -2 -8 -6 -46 -10 -85 -4 -38 -9 -83
-11 -100 -2 -16 -7 -64 -11 -105 -3 -41 -8 -78 -11 -83 -2 -4 16 -7 41 -7 45
0 46 1 47 33 1 17 3 41 4 52 3 22 17 167 19 202 1 12 4 24 7 27 2 3 34 -61 69
-142 42 -94 70 -147 80 -147 9 0 36 52 77 150 34 83 63 143 63 135 1 -8 3 -24
5 -35 2 -11 7 -54 10 -95 3 -41 8 -84 10 -95 2 -11 4 -35 4 -52 1 -32 2 -33
47 -33 l46 0 -6 42 c-3 24 -8 70 -12 103 -3 33 -8 67 -9 75 -2 8 -6 51 -11 95
-4 44 -9 83 -10 88 -1 4 -2 18 -3 32 -1 23 -5 25 -46 25 l-45 0 -29 -62 c-15
-35 -41 -92 -56 -128 -16 -36 -31 -68 -34 -72 -3 -4 -33 54 -66 128 l-60 134
-47 0 c-47 0 -48 0 -49 -32z"/>
</g>
</svg>
