<?xml version="1.0" encoding="utf-8"?>
<!-- Generator: Adobe Illustrator 20.1.0, SVG Export Plug-In . SVG Version: 6.00 Build 0)  -->
<!DOCTYPE svg PUBLIC "-//W3C//DTD SVG 1.1//EN" "http://www.w3.org/Graphics/SVG/1.1/DTD/svg11.dtd">
<svg version="1.1" id="Ebene_1" xmlns="http://www.w3.org/2000/svg" xmlns:xlink="http://www.w3.org/1999/xlink" x="0px" y="0px"
	 viewBox="0 0 561.7 74.6" style="enable-background:new 0 0 561.7 74.6;" xml:space="preserve">
<style type="text/css">
	.st0{fill:#707377;}
	.st1{fill:#0099CC;}
	.st2{fill:#0BCE00;}
	.st3{opacity:0.3;fill:#0BCE00;}
	.st4{opacity:0.6;fill:#0BCE00;}
	.st5{opacity:0.45;fill:#0BCE00;}
	.st6{opacity:0.75;fill:#0BCE00;}
	.st7{opacity:0.15;fill:#0BCE00;}
</style>
<g>
	<path class="st0" d="M347.3,28.6c0-3.4-0.1-5.8-0.3-8.4h4.8l0.3,4.8h0.1c1.5-2.8,4.8-5.4,9.5-5.4c4.3,0,10,2.8,10,12.6v19.5h-5.5
		V33c0-4.7-1.6-8.8-6.4-8.8c-3.3,0-5.9,2.4-6.8,5.7c-0.2,0.7-0.3,1.7-0.3,2.7v19.2h-5.5V28.6z"/>
	<path class="st0" d="M383.8,36.8c0.1,8.3,4.7,11.2,9.8,11.2c3.5,0,5.9-0.7,7.7-1.5l0.9,4c-1.9,0.9-5.1,1.8-9.4,1.8
		c-9.1,0-14.3-6.3-14.3-15.9c0-9.7,5.3-16.8,13.6-16.8c9.1,0,11.7,8.3,11.7,14.5c0,1.2-0.1,2.1-0.2,2.7H383.8z M398.5,32.8
		c0.1-4.4-1.7-9.2-7-9.2c-5.1,0-7.3,5.1-7.7,9.2H398.5z"/>
	<path class="st0" d="M436.3,35.8c0,11.8-7.4,16.6-14.1,16.6c-7.7,0-13.7-5.9-13.7-16.2c0-10.8,6.4-16.6,14.1-16.6
		C430.6,19.6,436.3,25.8,436.3,35.8z M414.1,36c0,6.4,3.1,12.1,8.3,12.1c5.2,0,8.3-5.8,8.3-12.3c0-5.1-2.2-12.1-8.3-12.1
		C416.3,23.8,414.1,30.4,414.1,36z"/>
	<path class="st0" d="M456.1,27.4v4.1h-15.5v-4.1H456.1z"/>
	<path class="st0" d="M462.7,51.7V7.8h5.8l12.3,21.7c2.8,5,5.3,10,7.2,14.6h0.1c-0.5-6.2-0.6-11.7-0.6-18.7V7.8h5.1v43.9h-5.4
		l-12.3-21.9c-2.7-4.8-5.3-9.8-7.3-14.8l-0.2,0.1c0.4,5.7,0.5,11,0.5,18.9v17.7H462.7z"/>
</g>
<g>
	<g>
		<path class="st1" d="M20.5,59.1l-3.2,14.6H0l17.6-66h21.9l17.4,66H39.3l-3.6-14.6H20.5z M33.6,46.4l-2.6-12
			c-0.9-3.7-2-9.7-2.9-13.6h-0.2c-0.9,3.9-1.9,10-2.6,13.6l-2.6,12H33.6z"/>
		<path class="st1" d="M65,7.7h16.9v51.8h22.6v14.2H65V7.7z"/>
		<path class="st1" d="M115.7,64.5l26.5-42.3v-0.3h-24V7.7h45.1v10.5l-25.5,41v0.3h25.8v14.2h-48V64.5z"/>
		<path class="st1" d="M228.5,39.8c0,22.3-11.6,34.8-29.9,34.8c-19.3,0-28.8-16-28.8-33.8c0-18.4,10.9-34.2,29.8-34.2
			C219.8,6.7,228.5,23.6,228.5,39.8z M187.6,40.8c0,13.3,4.6,20.2,11.6,20.2c7.3,0,11.4-8.1,11.4-20.6c0-11.4-4-20-11.5-20
			C192.2,20.4,187.6,27.9,187.6,40.8z"/>
		<path class="st1" d="M237.5,73.7v-66h18.7l10.2,21.2c2.9,5.9,6.7,14.6,9.1,21.5h0.3c-0.8-7.7-1.4-18-1.4-28.7V7.7h15.3v66h-17.2
			l-10.5-22c-3.1-6.4-7-15.3-9.6-22.3H252c0.4,7.9,0.7,18.2,0.7,29.6v14.8H237.5z"/>
		<path class="st1" d="M334.9,16.1c0,9-7.2,16.2-16.4,16.2S302,25.1,302,16.1S309.3,0,318.6,0C327.7,0,334.9,7,334.9,16.1z
			 M306.1,16.1c0,7.1,5.4,12.8,12.5,12.8c7,0.1,12.2-5.7,12.2-12.7c0-7.1-5.3-12.9-12.4-12.9C311.4,3.2,306.1,9,306.1,16.1z
			 M315.9,24.4h-3.7V8.3c1.5-0.2,3.5-0.5,6.2-0.5c3,0,4.4,0.5,5.5,1.3c1,0.7,1.7,1.9,1.7,3.4c0,2-1.5,3.2-3.3,3.8v0.2
			c1.6,0.5,2.3,1.8,2.8,3.9c0.5,2.4,0.9,3.3,1.2,3.9h-3.9c-0.5-0.6-0.8-2-1.3-3.9c-0.3-1.7-1.3-2.4-3.3-2.4h-1.8V24.4z M316,15.4
			h1.8c2.1,0,3.7-0.7,3.7-2.3c0-1.5-1.1-2.4-3.4-2.4c-1,0-1.7,0.1-2.1,0.2V15.4z"/>
	</g>
</g>
<g>
	<g>
		<g>
			<polygon class="st2" points="553.3,44.5 544.9,30 561.7,30 			"/>
			<polygon class="st3" points="536.5,73.7 528.1,59.1 544.9,59.1 			"/>
			<polygon class="st4" points="544.9,59.1 536.5,44.6 553.3,44.6 			"/>
			<polygon class="st5" points="536.5,44.6 528.1,59.1 544.9,59.1 			"/>
			<polygon class="st6" points="544.9,30 536.5,44.6 553.3,44.6 			"/>
			<polygon class="st7" points="528.1,59.2 519.7,73.7 536.5,73.7 			"/>
		</g>
		<polygon class="st3" points="514.5,73.7 506.1,59.1 522.9,59.1 		"/>
		<polygon class="st4" points="522.9,59.1 514.5,44.6 531.3,44.6 		"/>
		<polygon class="st5" points="514.5,44.6 506.1,59.1 522.9,59.1 		"/>
		<polygon class="st7" points="506.1,59.2 497.7,73.7 514.5,73.7 		"/>
	</g>
	<polygon class="st2" points="495.2,68.6 301.9,68.6 301.9,73.7 492.5,73.7 	"/>
</g>
</svg>
