<?xml version="1.0" encoding="utf-8"?>
<!-- Generator: Adobe Illustrator 21.0.2, SVG Export Plug-In . SVG Version: 6.00 Build 0)  -->
<!DOCTYPE svg PUBLIC "-//W3C//DTD SVG 1.1//EN" "http://www.w3.org/Graphics/SVG/1.1/DTD/svg11.dtd">
<svg version="1.1" id="Ebene_1" xmlns="http://www.w3.org/2000/svg" xmlns:xlink="http://www.w3.org/1999/xlink" x="0px" y="0px"
	 viewBox="0 0 247.1 454.4" style="enable-background:new 0 0 247.1 454.4;" xml:space="preserve">
<style type="text/css">
	.st0{fill:url(#SVGID_1_);}
	.st1{fill:url(#SVGID_2_);}
	.st2{fill:url(#SVGID_3_);}
	.st3{fill:url(#SVGID_4_);}
	.st4{opacity:0.5;fill:url(#SVGID_5_);}
	.st5{opacity:0.5;fill:url(#SVGID_6_);}
	.st6{opacity:0.5;fill:url(#SVGID_7_);}
	.st7{clip-path:url(#SVGID_9_);}
	.st8{fill:none;stroke:#C6C4C4;stroke-width:0.9939;stroke-miterlimit:10;}
	.st9{fill:#C6C4C4;stroke:#C7C6C7;stroke-width:1.8687;stroke-miterlimit:10;}
	.st10{fill:#1492D1;}
	.st11{fill:#7F878E;}
</style>
<g>
	<g>
		<linearGradient id="SVGID_1_" gradientUnits="userSpaceOnUse" x1="71.3145" y1="100.6876" x2="218.4771" y2="355.5808">
			<stop  offset="0" style="stop-color:#1193D2"/>
			<stop  offset="1" style="stop-color:#1179A7"/>
		</linearGradient>
		<polygon class="st0" points="177.8,114.5 177.3,227.7 111.9,114.2 47,114.7 46.6,341.4 111.9,341.4 111.9,228.2 177.3,341.4 
			243.1,341.4 243.1,114.7 		"/>
		<linearGradient id="SVGID_2_" gradientUnits="userSpaceOnUse" x1="0" y1="92.3161" x2="45.5361" y2="92.3161">
			<stop  offset="0" style="stop-color:#24AEE5"/>
			<stop  offset="1" style="stop-color:#0579B0"/>
		</linearGradient>
		<path class="st1" d="M45.5,113.2c0,0-31.4-5.3-45.5-41.8C48.7,83.3,45.5,113.2,45.5,113.2z"/>
		<linearGradient id="SVGID_3_" gradientUnits="userSpaceOnUse" x1="55.1102" y1="64.9815" x2="76.6254" y2="102.247">
			<stop  offset="0" style="stop-color:#24AEE5"/>
			<stop  offset="1" style="stop-color:#0579B0"/>
		</linearGradient>
		<path class="st2" d="M57.3,113.2c0,0-9.3-30.5,17.1-59.4C85.5,102.8,57.3,113.2,57.3,113.2z"/>
		<linearGradient id="SVGID_4_" gradientUnits="userSpaceOnUse" x1="11.4974" y1="10.8079" x2="64.5235" y2="102.6518">
			<stop  offset="0" style="stop-color:#35ABE1"/>
			<stop  offset="1" style="stop-color:#0281B8"/>
		</linearGradient>
		<path class="st3" d="M45.5,113.6c0,0-32.8-38.1-15.3-113.6C77.7,65.3,45.5,113.6,45.5,113.6z"/>
		
			<linearGradient id="SVGID_5_" gradientUnits="userSpaceOnUse" x1="-4576.5249" y1="80.3425" x2="-4576.5249" y2="379.9583" gradientTransform="matrix(-0.6774 0.7356 -0.7356 -0.6774 -2801.8389 3766.1602)">
			<stop  offset="0" style="stop-color:#FFFFFF"/>
			<stop  offset="1" style="stop-color:#FFFFFF;stop-opacity:0"/>
		</linearGradient>
		<polygon class="st4" points="177.3,341.4 45.5,113.6 243.1,341.4 		"/>
		
			<linearGradient id="SVGID_6_" gradientUnits="userSpaceOnUse" x1="-4554.9775" y1="225.6398" x2="-4554.9775" y2="378.8987" gradientTransform="matrix(-0.6774 0.7356 -0.7356 -0.6774 -2801.8389 3766.1602)">
			<stop  offset="0" style="stop-color:#FFFFFF"/>
			<stop  offset="1" style="stop-color:#FFFFFF;stop-opacity:0"/>
		</linearGradient>
		<polygon class="st5" points="46.1,114.6 46.6,340.3 112.2,114.4 		"/>
	</g>
	
		<linearGradient id="SVGID_7_" gradientUnits="userSpaceOnUse" x1="453.989" y1="714.0079" x2="520.8985" y2="714.0079" gradientTransform="matrix(1 0 0 1 -276.655 -486.0912)">
		<stop  offset="0" style="stop-color:#0A5070;stop-opacity:0.3"/>
		<stop  offset="1" style="stop-color:#2680C3;stop-opacity:0"/>
	</linearGradient>
	<polygon class="st6" points="244.2,114.9 177.3,340.9 177.8,114.9 	"/>
	<g id="lines_1_">
		<defs>
			<polygon id="SVGID_8_" points="177.8,114.5 177.3,227.7 111.9,114.2 47,114.7 46.6,341.4 111.9,341.4 111.9,228.2 177.3,341.4 
				243.1,341.4 243.1,114.7 			"/>
		</defs>
		<clipPath id="SVGID_9_">
			<use xlink:href="#SVGID_8_"  style="overflow:visible;"/>
		</clipPath>
		<g id="Dreiecksraster_x5F_horizontal_1_" class="st7">
			<g>
				<rect x="-980.1" y="1818.1" class="st8" width="2813.4" height="0.2"/>
			</g>
			<g>
				<rect x="-979.7" y="1761.3" class="st8" width="2813.4" height="0.2"/>
			</g>
			<g>
				<rect x="-979.4" y="1704.5" class="st8" width="2813.4" height="0.2"/>
			</g>
			<g>
				<rect x="-979" y="1647.7" class="st8" width="2813.4" height="0.2"/>
			</g>
			<g>
				<rect x="-978.7" y="1590.9" class="st8" width="2813.4" height="0.2"/>
			</g>
			<g>
				<rect x="-978.3" y="1534.1" class="st8" width="2813.4" height="0.2"/>
			</g>
			<g>
				<rect x="-978" y="1477.3" class="st8" width="2813.4" height="0.2"/>
			</g>
			<g>
				<rect x="-977.6" y="1420.5" class="st8" width="2813.4" height="0.2"/>
			</g>
			<g>
				<rect x="-977.3" y="1363.7" class="st8" width="2813.4" height="0.2"/>
			</g>
			<g>
				<rect x="-976.9" y="1306.9" class="st8" width="2813.4" height="0.2"/>
			</g>
			<g>
				<rect x="-976.6" y="1250.1" class="st8" width="2813.4" height="0.2"/>
			</g>
			<g>
				<rect x="-976.2" y="1193.3" class="st8" width="2813.4" height="0.2"/>
			</g>
			<g>
				<rect x="-975.9" y="1136.5" class="st8" width="2813.4" height="0.2"/>
			</g>
			<g>
				<rect x="-975.5" y="1079.7" class="st8" width="2813.4" height="0.2"/>
			</g>
			<g>
				<rect x="-975.1" y="1022.9" class="st8" width="2813.4" height="0.2"/>
			</g>
			<g>
				<rect x="-974.8" y="966.1" class="st8" width="2813.4" height="0.2"/>
			</g>
			<g>
				<rect x="-974.4" y="909.3" class="st8" width="2813.4" height="0.2"/>
			</g>
			<g>
				<rect x="-974.1" y="852.5" class="st8" width="2813.4" height="0.2"/>
			</g>
			<g>
				<rect x="-973.7" y="795.7" class="st8" width="2813.4" height="0.2"/>
			</g>
			<g>
				<rect x="-973.4" y="738.9" class="st8" width="2813.4" height="0.2"/>
			</g>
			<g>
				<rect x="-973" y="682.1" class="st8" width="2813.4" height="0.2"/>
			</g>
			<g>
				<rect x="-972.7" y="625.3" class="st8" width="2813.4" height="0.2"/>
			</g>
			<g>
				<rect x="-972.3" y="568.5" class="st8" width="2813.4" height="0.2"/>
			</g>
			<g>
				<rect x="-972" y="511.7" class="st8" width="2813.4" height="0.2"/>
			</g>
			<g>
				<rect x="-971.6" y="454.9" class="st8" width="2813.4" height="0.2"/>
			</g>
			<g>
				<rect x="-971.3" y="398.1" class="st8" width="2813.4" height="0.2"/>
			</g>
			<g>
				<rect x="-970.9" y="341.3" class="st8" width="2813.4" height="0.2"/>
			</g>
			<g>
				<rect x="-970.6" y="284.6" class="st8" width="2813.4" height="0.2"/>
			</g>
			<g>
				<rect x="-970.2" y="227.8" class="st8" width="2813.4" height="0.2"/>
			</g>
			<g>
				<rect x="-969.8" y="171" class="st8" width="2813.4" height="0.2"/>
			</g>
			<g>
				<rect x="-969.5" y="114.2" class="st8" width="2813.4" height="0.2"/>
			</g>
			<g>
				<rect x="-969.1" y="57.4" class="st8" width="2813.4" height="0.2"/>
			</g>
			<g>
				<rect x="-968.8" y="0.6" class="st8" width="2813.4" height="0.2"/>
			</g>
			<g>
				<rect x="-968.4" y="-56.2" class="st8" width="2813.4" height="0.2"/>
			</g>
			<g>
				<rect x="-968.1" y="-113" class="st8" width="2813.4" height="0.2"/>
			</g>
			<g>
				<rect x="-967.7" y="-169.8" class="st8" width="2813.4" height="0.2"/>
			</g>
			<g>
				<rect x="-967.4" y="-226.6" class="st8" width="2813.4" height="0.2"/>
			</g>
			<g>
				<rect x="-967" y="-283.4" class="st8" width="2813.4" height="0.2"/>
			</g>
			<g>
				<rect x="-966.7" y="-340.2" class="st8" width="2813.4" height="0.2"/>
			</g>
			<g>
				<rect x="-966.3" y="-397" class="st8" width="2813.4" height="0.2"/>
			</g>
			<g>
				<rect x="-966" y="-453.8" class="st8" width="2813.4" height="0.2"/>
			</g>
			<g>
				<rect x="-965.6" y="-510.6" class="st8" width="2813.4" height="0.2"/>
			</g>
			<g>
				<rect x="-965.3" y="-567.4" class="st8" width="2813.4" height="0.2"/>
			</g>
			<g>
				<rect x="-964.9" y="-624.2" class="st8" width="2813.4" height="0.2"/>
			</g>
			<g>
				<rect x="-964.6" y="-681" class="st8" width="2813.4" height="0.2"/>
			</g>
			<g>
				<rect x="-964.2" y="-737.8" class="st8" width="2813.4" height="0.2"/>
			</g>
			<g>
				<rect x="-963.8" y="-794.6" class="st8" width="2813.4" height="0.2"/>
			</g>
			<g>
				<rect x="-963.5" y="-851.4" class="st8" width="2813.4" height="0.2"/>
			</g>
			<g>
				<rect x="-963.1" y="-908.2" class="st8" width="2813.4" height="0.2"/>
			</g>
			<g>
				<rect x="-962.8" y="-965" class="st8" width="2813.4" height="0.2"/>
			</g>
			<g>
				<rect x="-962.4" y="-1021.8" class="st8" width="2813.4" height="0.2"/>
			</g>
			<g>
				<rect x="-962.1" y="-1078.6" class="st8" width="2813.4" height="0.2"/>
			</g>
			<g>
				<rect x="-961.7" y="-1135.4" class="st8" width="2813.4" height="0.2"/>
			</g>
		</g>
		<g id="Dreiecksraster_x5F_re_1_" class="st7">
			<g>
				<polygon class="st8" points="-1541.8,820.7 -1542,820.6 -135.3,-1615.8 -135.1,-1615.7 				"/>
			</g>
			<g>
				<polygon class="st8" points="-1492.8,849.4 -1493,849.3 -86.3,-1587.1 -86.1,-1587 				"/>
			</g>
			<g>
				<polygon class="st8" points="-1443.8,878.1 -1444,878 -37.3,-1558.4 -37.1,-1558.3 				"/>
			</g>
			<g>
				<polygon class="st8" points="-1394.8,906.8 -1395,906.7 11.7,-1529.7 11.9,-1529.6 				"/>
			</g>
			<g>
				<polygon class="st8" points="-1345.8,935.5 -1345.9,935.4 60.7,-1501 60.9,-1500.9 				"/>
			</g>
			<g>
				<polygon class="st8" points="-1296.8,964.3 -1296.9,964.2 109.8,-1472.3 109.9,-1472.2 				"/>
			</g>
			<g>
				<polygon class="st8" points="-1247.7,993 -1247.9,992.9 158.8,-1443.6 158.9,-1443.5 				"/>
			</g>
			<g>
				<polygon class="st8" points="-1198.7,1021.7 -1198.9,1021.6 207.8,-1414.9 208,-1414.8 				"/>
			</g>
			<g>
				<polygon class="st8" points="-1149.7,1050.4 -1149.9,1050.3 256.8,-1386.2 257,-1386.1 				"/>
			</g>
			<g>
				<polygon class="st8" points="-1100.7,1079.1 -1100.9,1079 305.8,-1357.5 306,-1357.4 				"/>
			</g>
			<g>
				<polygon class="st8" points="-1051.7,1107.8 -1051.9,1107.7 354.8,-1328.8 355,-1328.7 				"/>
			</g>
			<g>
				<polygon class="st8" points="-1002.7,1136.5 -1002.9,1136.4 403.8,-1300.1 404,-1300 				"/>
			</g>
			<g>
				<polygon class="st8" points="-953.7,1165.2 -953.8,1165.1 452.8,-1271.3 453,-1271.2 				"/>
			</g>
			<g>
				<polygon class="st8" points="-904.6,1193.9 -904.8,1193.8 501.9,-1242.6 502,-1242.5 				"/>
			</g>
			<g>
				<polygon class="st8" points="-855.6,1222.6 -855.8,1222.5 550.9,-1213.9 551,-1213.8 				"/>
			</g>
			<g>
				<polygon class="st8" points="-806.6,1251.3 -806.8,1251.2 599.9,-1185.2 600.1,-1185.1 				"/>
			</g>
			<g>
				<polygon class="st8" points="-757.6,1280 -757.8,1279.9 648.9,-1156.5 649.1,-1156.4 				"/>
			</g>
			<g>
				<polygon class="st8" points="-708.6,1308.7 -708.8,1308.6 697.9,-1127.8 698.1,-1127.7 				"/>
			</g>
			<g>
				<polygon class="st8" points="-659.6,1337.4 -659.8,1337.3 746.9,-1099.1 747.1,-1099 				"/>
			</g>
			<g>
				<polygon class="st8" points="-610.6,1366.1 -610.7,1366 795.9,-1070.4 796.1,-1070.3 				"/>
			</g>
			<g>
				<polygon class="st8" points="-561.6,1394.8 -561.5,1394.4 845.2,-1042.1 845.1,-1041.6 				"/>
			</g>
			<g>
				<polygon class="st8" points="-512.5,1423.5 -512.7,1423.4 894,-1013 894.1,-1012.9 				"/>
			</g>
			<g>
				<polygon class="st8" points="-463.5,1452.2 -463.7,1452.1 943,-984.3 943.1,-984.2 				"/>
			</g>
			<g>
				<polygon class="st8" points="-414.5,1480.9 -414.7,1480.8 992,-955.6 992.2,-955.5 				"/>
			</g>
			<g>
				<polygon class="st8" points="-365.5,1509.7 -365.7,1509.6 1041,-926.9 1041.2,-926.8 				"/>
			</g>
			<g>
				<polygon class="st8" points="-316.5,1538.4 -316.7,1538.3 1090,-898.2 1090.2,-898.1 				"/>
			</g>
			<g>
				<polygon class="st8" points="-267.5,1567.1 -267.7,1567 1139,-869.5 1139.2,-869.4 				"/>
			</g>
			<g>
				<polygon class="st8" points="-218.5,1595.8 -218.6,1595.7 1188,-840.8 1188.2,-840.7 				"/>
			</g>
			<g>
				<polygon class="st8" points="-169.5,1624.5 -169.6,1624.4 1237,-812.1 1237.2,-812 				"/>
			</g>
			<g>
				<polygon class="st8" points="-120.4,1653.2 -120.6,1653.1 1286.1,-783.4 1286.2,-783.3 				"/>
			</g>
			<g>
				<polygon class="st8" points="-71.4,1681.9 -71.6,1681.8 1335.1,-754.7 1335.2,-754.6 				"/>
			</g>
			<g>
				<polygon class="st8" points="-22.4,1710.6 -22.6,1710.5 1384.1,-725.9 1384.3,-725.8 				"/>
			</g>
			<g>
				<polygon class="st8" points="26.6,1739.3 26.4,1739.2 1433.1,-697.2 1433.3,-697.1 				"/>
			</g>
			<g>
				<polygon class="st8" points="75.6,1768 75.4,1767.9 1482.1,-668.5 1482.3,-668.4 				"/>
			</g>
			<g>
				<polygon class="st8" points="124.6,1796.7 124.4,1796.6 1531.1,-639.8 1531.3,-639.7 				"/>
			</g>
			<g>
				<polygon class="st8" points="173.6,1825.4 173.5,1825.3 1580.1,-611.1 1580.3,-611 				"/>
			</g>
			<g>
				<polygon class="st8" points="222.6,1854.1 222.5,1854 1629.2,-582.4 1629.3,-582.3 				"/>
			</g>
			<g>
				<polygon class="st8" points="271.7,1882.8 271.5,1882.7 1678.2,-553.7 1678.3,-553.6 				"/>
			</g>
			<g>
				<polygon class="st8" points="320.7,1911.5 320.5,1911.4 1727.2,-525 1727.3,-524.9 				"/>
			</g>
			<g>
				<polygon class="st8" points="369.7,1940.2 369.5,1940.1 1776.2,-496.3 1776.4,-496.2 				"/>
			</g>
			<g>
				<polygon class="st8" points="418.7,1968.9 418.5,1968.8 1825.2,-467.6 1825.4,-467.5 				"/>
			</g>
			<g>
				<polygon class="st8" points="467.7,1997.6 467.5,1997.5 1874.2,-438.9 1874.4,-438.8 				"/>
			</g>
			<g>
				<polygon class="st8" points="516.7,2026.3 516.5,2026.2 1923.2,-410.2 1923.4,-410.1 				"/>
			</g>
			<g>
				<polygon class="st8" points="565.7,2055.1 565.6,2055 1972.2,-381.5 1972.4,-381.4 				"/>
			</g>
			<g>
				<polygon class="st8" points="614.7,2083.8 614.6,2083.7 2021.3,-352.8 2021.4,-352.7 				"/>
			</g>
			<g>
				<polygon class="st8" points="663.8,2112.5 663.6,2112.4 2070.3,-324.1 2070.4,-324 				"/>
			</g>
			<g>
				<polygon class="st8" points="712.8,2141.2 712.6,2141.1 2119.3,-295.4 2119.5,-295.3 				"/>
			</g>
			<g>
				<polygon class="st8" points="761.8,2169.9 761.6,2169.8 2168.3,-266.7 2168.5,-266.6 				"/>
			</g>
			<g>
				<polygon class="st8" points="810.8,2198.6 810.6,2198.5 2217.3,-238 2217.5,-237.9 				"/>
			</g>
			<g>
				<polygon class="st8" points="859.8,2227.3 859.6,2227.2 2266.3,-209.3 2266.5,-209.2 				"/>
			</g>
			<g>
				<polygon class="st8" points="908.8,2256 908.7,2255.9 2315.3,-180.5 2315.5,-180.4 				"/>
			</g>
			<g>
				<polygon class="st8" points="957.8,2284.7 957.7,2284.6 2364.3,-151.8 2364.5,-151.7 				"/>
			</g>
			<g>
				<polygon class="st8" points="1006.9,2313.4 1006.7,2313.3 2413.4,-123.1 2413.5,-123 				"/>
			</g>
		</g>
		<g id="Dreiecksraster_x5F_li_1_" class="st7">
			<g>
				<polygon class="st8" points="2417.5,814 1018.9,-1608.5 1019.1,-1608.6 2417.7,813.9 				"/>
			</g>
			<g>
				<polygon class="st8" points="2368.5,842.7 969.9,-1579.8 970,-1579.9 2368.7,842.6 				"/>
			</g>
			<g>
				<polygon class="st8" points="2319.5,871.4 920.9,-1551.1 921,-1551.2 2319.7,871.3 				"/>
			</g>
			<g>
				<polygon class="st8" points="2270.5,900.1 871.8,-1522.4 872,-1522.5 2270.6,900 				"/>
			</g>
			<g>
				<polygon class="st8" points="2221.5,928.8 822.8,-1493.7 823,-1493.8 2221.6,928.7 				"/>
			</g>
			<g>
				<polygon class="st8" points="2172.4,957.5 773.8,-1465 774,-1465.1 2172.6,957.4 				"/>
			</g>
			<g>
				<polygon class="st8" points="2123.4,986.2 724.8,-1436.3 725,-1436.4 2123.6,986.1 				"/>
			</g>
			<g>
				<polygon class="st8" points="2074.4,1014.9 675.8,-1407.6 676,-1407.7 2074.6,1014.8 				"/>
			</g>
			<g>
				<polygon class="st8" points="2025.4,1043.6 626.8,-1378.9 626.9,-1379 2025.6,1043.5 				"/>
			</g>
			<g>
				<polygon class="st8" points="1976.4,1072.3 577.8,-1350.2 577.9,-1350.3 1976.6,1072.2 				"/>
			</g>
			<g>
				<polygon class="st8" points="1927.4,1101 528.7,-1321.5 528.9,-1321.6 1927.6,1100.9 				"/>
			</g>
			<g>
				<polygon class="st8" points="1878.4,1129.7 479.7,-1292.8 479.9,-1292.9 1878.5,1129.6 				"/>
			</g>
			<g>
				<polygon class="st8" points="1829.3,1158.4 430.7,-1264.1 430.9,-1264.2 1829.5,1158.3 				"/>
			</g>
			<g>
				<polygon class="st8" points="1780.3,1187.1 381.7,-1235.4 381.9,-1235.5 1780.5,1187 				"/>
			</g>
			<g>
				<polygon class="st8" points="1731.3,1215.8 332.7,-1206.7 332.9,-1206.8 1731.5,1215.7 				"/>
			</g>
			<g>
				<polygon class="st8" points="1682.3,1244.5 283.7,-1178 283.9,-1178.1 1682.5,1244.4 				"/>
			</g>
			<g>
				<polygon class="st8" points="1633.3,1273.2 234.7,-1149.3 234.8,-1149.4 1633.5,1273.1 				"/>
			</g>
			<g>
				<polygon class="st8" points="1584.3,1301.9 185.6,-1120.6 185.8,-1120.7 1584.5,1301.8 				"/>
			</g>
			<g>
				<polygon class="st8" points="1535.3,1330.6 136.6,-1091.9 136.8,-1092 1535.4,1330.5 				"/>
			</g>
			<g>
				<polygon class="st8" points="1486.3,1359.3 87.6,-1063.2 87.8,-1063.3 1486.4,1359.2 				"/>
			</g>
			<g>
				<polygon class="st8" points="1437.2,1388 38.6,-1034.4 38.8,-1034.5 1437.4,1387.9 				"/>
			</g>
			<g>
				<polygon class="st8" points="1388.2,1416.8 -10.4,-1005.7 -10.2,-1005.8 1388.4,1416.6 				"/>
			</g>
			<g>
				<polygon class="st8" points="1339.2,1445.5 -59.4,-977 -59.2,-977.1 1339.4,1445.4 				"/>
			</g>
			<g>
				<polygon class="st8" points="1290.2,1474.2 -108.4,-948.3 -108.3,-948.4 1290.4,1474.1 				"/>
			</g>
			<g>
				<polygon class="st8" points="1241.2,1502.9 -157.4,-919.6 -157.3,-919.7 1241.4,1502.8 				"/>
			</g>
			<g>
				<polygon class="st8" points="1192.2,1531.6 -206.5,-890.9 -206.3,-891 1192.3,1531.5 				"/>
			</g>
			<g>
				<polygon class="st8" points="1143.2,1560.3 -255.5,-862.2 -255.3,-862.3 1143.3,1560.2 				"/>
			</g>
			<g>
				<polygon class="st8" points="1094.1,1589 -304.5,-833.5 -304.3,-833.6 1094.3,1588.9 				"/>
			</g>
			<g>
				<polygon class="st8" points="1045.1,1617.7 -353.5,-804.8 -353.3,-804.9 1045.3,1617.6 				"/>
			</g>
			<g>
				<polygon class="st8" points="996.1,1646.4 -402.5,-776.1 -402.3,-776.2 996.3,1646.3 				"/>
			</g>
			<g>
				<polygon class="st8" points="947.1,1675.1 -451.5,-747.4 -451.4,-747.5 947.3,1675 				"/>
			</g>
			<g>
				<polygon class="st8" points="898.1,1703.8 -500.5,-718.7 -500.4,-718.8 898.3,1703.7 				"/>
			</g>
			<g>
				<polygon class="st8" points="849.1,1732.5 -549.6,-690 -549.4,-690.1 849.2,1732.4 				"/>
			</g>
			<g>
				<polygon class="st8" points="800.1,1761.2 -598.6,-661.3 -598.4,-661.4 800.2,1761.1 				"/>
			</g>
			<g>
				<polygon class="st8" points="751,1789.9 -647.6,-632.6 -647.4,-632.7 751.2,1789.8 				"/>
			</g>
			<g>
				<polygon class="st8" points="702,1818.6 -696.6,-603.9 -696.4,-604 702.2,1818.5 				"/>
			</g>
			<g>
				<polygon class="st8" points="653,1847.3 -745.6,-575.2 -745.4,-575.3 653.2,1847.2 				"/>
			</g>
			<g>
				<polygon class="st8" points="604,1876 -794.6,-546.5 -794.5,-546.6 604.2,1875.9 				"/>
			</g>
			<g>
				<polygon class="st8" points="555,1904.7 -843.6,-517.8 -843.5,-517.9 555.2,1904.6 				"/>
			</g>
			<g>
				<polygon class="st8" points="506,1933.4 -892.7,-489.1 -892.5,-489.2 506.1,1933.3 				"/>
			</g>
			<g>
				<polygon class="st8" points="457,1962.1 -941.7,-460.4 -941.5,-460.5 457.1,1962 				"/>
			</g>
			<g>
				<polygon class="st8" points="407.9,1990.8 -990.7,-431.7 -990.5,-431.8 408.1,1990.7 				"/>
			</g>
			<g>
				<polygon class="st8" points="358.9,2019.5 -1039.7,-403 -1039.5,-403.1 359.1,2019.4 				"/>
			</g>
			<g>
				<polygon class="st8" points="309.9,2048.2 -1088.7,-374.3 -1088.5,-374.4 310.1,2048.1 				"/>
			</g>
			<g>
				<polygon class="st8" points="260.9,2076.9 -1137.7,-345.6 -1137.6,-345.7 261.1,2076.8 				"/>
			</g>
			<g>
				<polygon class="st8" points="211.9,2105.6 -1186.7,-316.9 -1186.6,-317 212.1,2105.5 				"/>
			</g>
			<g>
				<polygon class="st8" points="162.9,2134.3 -1235.8,-288.2 -1235.6,-288.3 163.1,2134.2 				"/>
			</g>
			<g>
				<polygon class="st8" points="113.9,2163 -1284.8,-259.5 -1284.6,-259.6 114,2162.9 				"/>
			</g>
			<g>
				<polygon class="st8" points="64.8,2191.7 -1333.8,-230.8 -1333.6,-230.9 65,2191.6 				"/>
			</g>
			<g>
				<polygon class="st8" points="15.8,2220.4 -1382.8,-202 -1382.6,-202.1 16,2220.3 				"/>
			</g>
			<g>
				<polygon class="st8" points="-33.2,2249.2 -1431.8,-173.3 -1431.6,-173.4 -33,2249.1 				"/>
			</g>
			<g>
				<polygon class="st8" points="-82.2,2277.9 -1480.8,-144.6 -1480.6,-144.7 -82,2277.8 				"/>
			</g>
			<g>
				<polygon class="st8" points="-131.2,2306.6 -1529.8,-115.9 -1529.7,-116 -131,2306.5 				"/>
			</g>
		</g>
		<g class="st7">
			<g>
				<rect x="-806.5" y="-568.3" class="st8" width="0.2" height="1800.2"/>
			</g>
			<g>
				<rect x="-773.7" y="-568.3" class="st8" width="0.2" height="1800.2"/>
			</g>
			<g>
				<rect x="-740.9" y="-568.3" class="st8" width="0.2" height="1800.2"/>
			</g>
			<g>
				<rect x="-708.1" y="-568.3" class="st8" width="0.2" height="1800.2"/>
			</g>
			<g>
				<rect x="-675.3" y="-568.3" class="st8" width="0.2" height="1800.2"/>
			</g>
			<g>
				<rect x="-642.5" y="-568.3" class="st8" width="0.2" height="1800.2"/>
			</g>
			<g>
				<rect x="-609.7" y="-568.3" class="st8" width="0.2" height="1800.2"/>
			</g>
			<g>
				<rect x="-576.9" y="-568.3" class="st8" width="0.2" height="1800.2"/>
			</g>
			<g>
				<rect x="-544.1" y="-568.3" class="st8" width="0.2" height="1800.2"/>
			</g>
			<g>
				<rect x="-511.3" y="-568.3" class="st8" width="0.2" height="1800.2"/>
			</g>
			<g>
				<rect x="-478.5" y="-568.3" class="st8" width="0.2" height="1800.2"/>
			</g>
			<g>
				<rect x="-445.7" y="-568.3" class="st8" width="0.2" height="1800.2"/>
			</g>
			<g>
				<rect x="-412.9" y="-568.3" class="st8" width="0.2" height="1800.2"/>
			</g>
			<g>
				<rect x="-380.1" y="-568.3" class="st8" width="0.2" height="1800.2"/>
			</g>
			<g>
				<rect x="-347.3" y="-568.3" class="st8" width="0.2" height="1800.2"/>
			</g>
			<g>
				<rect x="-314.6" y="-568.3" class="st8" width="0.2" height="1800.2"/>
			</g>
			<g>
				<rect x="-281.8" y="-568.3" class="st8" width="0.2" height="1800.2"/>
			</g>
			<g>
				<rect x="-249" y="-568.3" class="st8" width="0.2" height="1800.2"/>
			</g>
			<g>
				<rect x="-216.2" y="-568.3" class="st8" width="0.2" height="1800.2"/>
			</g>
			<g>
				<rect x="-183.4" y="-568.3" class="st8" width="0.2" height="1800.2"/>
			</g>
			<g>
				<rect x="-150.6" y="-568.3" class="st8" width="0.2" height="1800.2"/>
			</g>
			<g>
				<rect x="-117.8" y="-568.3" class="st8" width="0.2" height="1800.2"/>
			</g>
			<g>
				<rect x="-85" y="-568.3" class="st8" width="0.2" height="1800.2"/>
			</g>
			<g>
				<rect x="-52.2" y="-568.3" class="st8" width="0.2" height="1800.2"/>
			</g>
			<g>
				<rect x="-19.4" y="-568.3" class="st8" width="0.2" height="1800.2"/>
			</g>
			<g>
				<rect x="13.4" y="-568.3" class="st8" width="0.2" height="1800.2"/>
			</g>
			<g>
				<rect x="46.2" y="-568.3" class="st8" width="0.2" height="1800.2"/>
			</g>
			<g>
				<rect x="111.8" y="-568.3" class="st8" width="0.2" height="1800.2"/>
			</g>
			<g>
				<rect x="144.6" y="-568.3" class="st8" width="0.2" height="1800.2"/>
			</g>
			<g>
				<rect x="177.4" y="-568.3" class="st8" width="0.2" height="1800.2"/>
			</g>
			<g>
				<rect x="243" y="-568.3" class="st8" width="0.2" height="1800.2"/>
			</g>
			<g>
				<rect x="275.8" y="-568.3" class="st8" width="0.2" height="1800.2"/>
			</g>
			<g>
				<rect x="308.6" y="-568.3" class="st8" width="0.2" height="1800.2"/>
			</g>
			<g>
				<rect x="341.4" y="-568.3" class="st8" width="0.2" height="1800.2"/>
			</g>
			<g>
				<rect x="374.1" y="-568.3" class="st8" width="0.2" height="1800.2"/>
			</g>
			<g>
				<rect x="406.9" y="-568.3" class="st8" width="0.2" height="1800.2"/>
			</g>
			<g>
				<rect x="439.7" y="-568.3" class="st8" width="0.2" height="1800.2"/>
			</g>
			<g>
				<rect x="472.5" y="-568.3" class="st8" width="0.2" height="1800.2"/>
			</g>
			<g>
				<rect x="505.3" y="-568.3" class="st8" width="0.2" height="1800.2"/>
			</g>
			<g>
				<rect x="538.1" y="-568.3" class="st8" width="0.2" height="1800.2"/>
			</g>
			<g>
				<rect x="570.9" y="-568.3" class="st8" width="0.2" height="1800.2"/>
			</g>
			<g>
				<rect x="603.7" y="-568.3" class="st8" width="0.2" height="1800.2"/>
			</g>
			<g>
				<rect x="636.5" y="-568.3" class="st8" width="0.2" height="1800.2"/>
			</g>
			<g>
				<rect x="669.3" y="-568.3" class="st8" width="0.2" height="1800.2"/>
			</g>
			<g>
				<rect x="702.1" y="-568.3" class="st8" width="0.2" height="1800.2"/>
			</g>
			<g>
				<rect x="734.9" y="-568.3" class="st8" width="0.2" height="1800.2"/>
			</g>
			<g>
				<rect x="767.7" y="-568.3" class="st8" width="0.2" height="1800.2"/>
			</g>
			<g>
				<rect x="800.5" y="-568.3" class="st8" width="0.2" height="1800.2"/>
			</g>
			<g>
				<rect x="833.3" y="-568.3" class="st8" width="0.2" height="1800.2"/>
			</g>
			<g>
				<rect x="866.1" y="-568.3" class="st8" width="0.2" height="1800.2"/>
			</g>
			<g>
				<rect x="898.9" y="-568.3" class="st8" width="0.2" height="1800.2"/>
			</g>
			<g>
				<rect x="931.7" y="-568.3" class="st8" width="0.2" height="1800.2"/>
			</g>
			<g>
				<rect x="964.5" y="-568.3" class="st8" width="0.2" height="1800.2"/>
			</g>
			<g>
				<rect x="997.3" y="-568.3" class="st8" width="0.2" height="1800.2"/>
			</g>
			<g>
				<rect x="1030.1" y="-568.3" class="st8" width="0.2" height="1800.2"/>
			</g>
			<g>
				<rect x="1062.9" y="-568.3" class="st8" width="0.2" height="1800.2"/>
			</g>
			<g>
				<rect x="1095.6" y="-568.3" class="st8" width="0.2" height="1800.2"/>
			</g>
			<g>
				<rect x="1128.4" y="-568.3" class="st8" width="0.2" height="1800.2"/>
			</g>
			<g>
				<rect x="1161.2" y="-568.3" class="st8" width="0.2" height="1800.2"/>
			</g>
			<g>
				<rect x="1194" y="-568.3" class="st8" width="0.2" height="1800.2"/>
			</g>
			<g>
				<rect x="1226.8" y="-568.3" class="st8" width="0.2" height="1800.2"/>
			</g>
			<g>
				<rect x="1259.6" y="-568.3" class="st8" width="0.2" height="1800.2"/>
			</g>
			<g>
				<rect x="1292.4" y="-568.3" class="st8" width="0.2" height="1800.2"/>
			</g>
			<g>
				<rect x="1325.2" y="-568.3" class="st8" width="0.2" height="1800.2"/>
			</g>
			<g>
				<rect x="1358" y="-568.3" class="st8" width="0.2" height="1800.2"/>
			</g>
			<g>
				<rect x="1390.8" y="-568.3" class="st8" width="0.2" height="1800.2"/>
			</g>
			<g>
				<rect x="1423.6" y="-568.3" class="st8" width="0.2" height="1800.2"/>
			</g>
			<g>
				<rect x="1456.4" y="-568.3" class="st8" width="0.2" height="1800.2"/>
			</g>
			<g>
				<rect x="1489.2" y="-568.3" class="st8" width="0.2" height="1800.2"/>
			</g>
			<g>
				<rect x="1522" y="-568.3" class="st8" width="0.2" height="1800.2"/>
			</g>
			<g>
				<rect x="1554.8" y="-568.3" class="st8" width="0.2" height="1800.2"/>
			</g>
			<g>
				<rect x="1587.6" y="-568.3" class="st8" width="0.2" height="1800.2"/>
			</g>
			<g>
				<rect x="1620.4" y="-568.3" class="st8" width="0.2" height="1800.2"/>
			</g>
		</g>
		<use xlink:href="#SVGID_8_"  style="overflow:visible;fill:none;stroke:#C6C4C4;stroke-width:0.9939;stroke-miterlimit:10;"/>
	</g>
	<g id="dots_1_">
		<circle class="st9" cx="79.4" cy="171.1" r="3"/>
		<circle class="st9" cx="79.4" cy="284.5" r="3"/>
		<circle class="st9" cx="144.5" cy="284.5" r="3"/>
		<circle class="st9" cx="209.6" cy="284.5" r="3"/>
		<circle class="st9" cx="209.6" cy="171.6" r="3"/>
		<circle class="st9" cx="144" cy="171.6" r="3"/>
		<circle class="st9" cx="144" cy="228.2" r="3"/>
		<circle class="st9" cx="177.3" cy="228.2" r="3"/>
		<circle class="st9" cx="242.6" cy="228.2" r="3"/>
		<circle class="st9" cx="111.9" cy="228.2" r="3"/>
		<circle class="st9" cx="111.9" cy="114.2" r="3"/>
		<circle class="st9" cx="46.8" cy="114.2" r="3"/>
		<circle class="st9" cx="111.9" cy="341.4" r="3"/>
		<circle class="st9" cx="177.5" cy="341.4" r="3"/>
		<circle class="st9" cx="243.1" cy="341.4" r="3"/>
		<circle class="st9" cx="243.1" cy="114.7" r="3"/>
		<circle class="st9" cx="178" cy="114.7" r="3"/>
		<circle class="st9" cx="46.8" cy="340.6" r="3"/>
		<circle class="st9" cx="46.8" cy="228.2" r="3"/>
		<circle class="st9" cx="111.9" cy="171.1" r="3"/>
		<circle class="st9" cx="243.1" cy="171.6" r="3"/>
		<circle class="st9" cx="178" cy="171.6" r="3"/>
		<circle class="st9" cx="243.1" cy="284.5" r="3"/>
		<circle class="st9" cx="177.3" cy="284.5" r="3"/>
		<circle class="st9" cx="111.9" cy="284.5" r="3"/>
		<circle class="st9" cx="46.8" cy="284.5" r="3"/>
		<circle class="st9" cx="46.8" cy="171.1" r="3"/>
	</g>
	<rect x="46.4" y="450.7" class="st10" width="196.6" height="3.7"/>
	<g>
		<path class="st10" d="M46.5,398v-26.3h7.4l4.1,8.5c1.2,2.3,2.7,5.8,3.6,8.6h0.1c-0.3-3.1-0.5-7.2-0.5-11.4v-5.6h6.1V398h-6.9
			l-4.2-8.8c-1.2-2.5-2.8-6.1-3.8-8.9h-0.1c0.2,3.2,0.3,7.3,0.3,11.8v5.9H46.5z"/>
		<path class="st10" d="M82.1,371.7V398h-6.7v-26.3H82.1z"/>
		<path class="st10" d="M94.5,377.5h-6v-5.8h19v5.8h-6.2V398h-6.7V377.5z"/>
		<path class="st10" d="M113.8,372.1c1.9-0.3,4.7-0.5,7.8-0.5c3.7,0,6.6,0.5,8.5,2c1.7,1.4,2.5,3.2,2.5,5.7c0,3.1-2.1,5.5-4.3,6.4
			v0.1c1.7,0.7,2.7,2.4,3.2,4.8c0.7,2.7,1.6,6.5,2.1,7.5h-6.9c-0.4-0.7-1-3-1.7-6.1c-0.6-3.2-1.5-3.8-3.4-3.8h-1v9.9h-6.7V372.1z
			 M120.5,383.1h1.5c2.5,0,3.8-1.4,3.8-3.4c0-2-1.1-3.2-3.4-3.2c-1.1,0-1.7,0.1-2,0.2V383.1z"/>
		<path class="st10" d="M161.7,384.5c0,8.9-4.6,13.9-11.9,13.9c-7.7,0-11.5-6.4-11.5-13.5c0-7.3,4.3-13.6,11.9-13.6
			C158.3,371.3,161.7,378.1,161.7,384.5z M145.5,384.9c0,5.3,1.8,8,4.6,8c2.9,0,4.5-3.2,4.5-8.2c0-4.5-1.6-8-4.6-8
			C147.3,376.8,145.5,379.7,145.5,384.9z"/>
		<path class="st10" d="M189.1,396.9c-1.7,0.6-5.1,1.3-8.1,1.3c-4.6,0-7.8-1.2-10-3.3c-2.5-2.3-3.7-5.9-3.7-9.9
			c0.1-9.2,6.5-13.7,14.3-13.7c3.1,0,5.5,0.6,6.7,1.1l-1.3,5.5c-1.3-0.5-2.8-0.9-5.3-0.9c-4.1,0-7.4,2.3-7.4,7.9
			c0,5.1,2.9,7.8,6.5,7.8c0.7,0,1.4-0.1,1.8-0.2v-4.8h-3v-5.3h9.4V396.9z"/>
		<path class="st10" d="M211.8,387.2h-8.3v5.2h9.3v5.6h-16.1v-26.3h15.6v5.6h-8.8v4.4h8.3V387.2z"/>
		<path class="st10" d="M219.9,398v-26.3h7.4l4.1,8.5c1.2,2.3,2.7,5.8,3.6,8.6h0.1c-0.3-3.1-0.5-7.2-0.5-11.4v-5.6h6.1V398h-6.9
			l-4.2-8.8c-1.2-2.5-2.8-6.1-3.8-8.9h-0.1c0.2,3.2,0.3,7.3,0.3,11.8v5.9H219.9z"/>
	</g>
	<g>
		<g>
			<path class="st11" d="M47.5,431.6c1.4,0.9,3.5,1.6,5.7,1.6c3.3,0,5.2-1.7,5.2-4.2c0-2.3-1.3-3.6-4.7-4.9c-4.1-1.4-6.6-3.5-6.6-7
				c0-3.9,3.2-6.7,8-6.7c2.5,0,4.4,0.6,5.5,1.2l-0.9,2.6c-0.8-0.4-2.5-1.2-4.7-1.2c-3.4,0-4.7,2-4.7,3.7c0,2.3,1.5,3.5,4.9,4.8
				c4.2,1.6,6.3,3.6,6.3,7.3c0,3.8-2.8,7.1-8.7,7.1c-2.4,0-5-0.7-6.3-1.6L47.5,431.6z"/>
			<path class="st11" d="M73.5,413.4H66v-2.7h18.4v2.7h-7.6v22.1h-3.2V413.4z"/>
			<path class="st11" d="M91.2,427.7l-2.6,7.8h-3.3l8.4-24.8h3.9l8.5,24.8h-3.4l-2.7-7.8H91.2z M99.3,425.2l-2.4-7.1
				c-0.6-1.6-0.9-3.1-1.3-4.5h-0.1c-0.4,1.5-0.8,3-1.3,4.5l-2.4,7.2H99.3z"/>
			<path class="st11" d="M112.5,411c1.4-0.3,3.6-0.5,5.9-0.5c3.2,0,5.3,0.6,6.8,1.8c1.3,1,2.1,2.4,2.1,4.4c0,2.4-1.6,4.5-4.2,5.5
				v0.1c2.4,0.6,5.1,2.5,5.1,6.2c0,2.1-0.8,3.8-2.1,5c-1.7,1.6-4.5,2.3-8.6,2.3c-2.2,0-3.9-0.1-5-0.3V411z M115.7,421.2h2.9
				c3.4,0,5.4-1.8,5.4-4.2c0-2.9-2.2-4.1-5.5-4.1c-1.5,0-2.3,0.1-2.8,0.2V421.2z M115.7,433.1c0.6,0.1,1.5,0.1,2.7,0.1
				c3.3,0,6.4-1.2,6.4-4.8c0-3.4-2.9-4.8-6.4-4.8h-2.7V433.1z"/>
			<path class="st11" d="M138.4,410.6v24.8h-3.2v-24.8H138.4z"/>
			<path class="st11" d="M146.8,410.6h3.2v22.1h10.6v2.7h-13.8V410.6z"/>
			<path class="st11" d="M170.1,410.6v24.8h-3.2v-24.8H170.1z"/>
			<path class="st11" d="M178,431.6c1.4,0.9,3.5,1.6,5.7,1.6c3.3,0,5.2-1.7,5.2-4.2c0-2.3-1.3-3.6-4.7-4.9c-4.1-1.4-6.6-3.5-6.6-7
				c0-3.9,3.2-6.7,8-6.7c2.5,0,4.4,0.6,5.5,1.2l-0.9,2.6c-0.8-0.4-2.5-1.2-4.7-1.2c-3.4,0-4.7,2-4.7,3.7c0,2.3,1.5,3.5,4.9,4.8
				c4.2,1.6,6.3,3.6,6.3,7.3c0,3.8-2.8,7.1-8.7,7.1c-2.4,0-5-0.7-6.3-1.6L178,431.6z"/>
			<path class="st11" d="M212.3,423.8h-9.7v9h10.8v2.7h-14v-24.8h13.4v2.7h-10.2v7.8h9.7V423.8z"/>
			<path class="st11" d="M220.3,411c2-0.3,4.3-0.5,6.8-0.5c4.6,0,7.9,1.1,10.1,3.1c2.2,2,3.5,4.9,3.5,8.9c0,4.1-1.3,7.4-3.6,9.7
				c-2.3,2.3-6.2,3.6-11,3.6c-2.3,0-4.2-0.1-5.8-0.3V411z M223.5,432.9c0.8,0.1,2,0.2,3.2,0.2c6.9,0,10.6-3.8,10.6-10.5
				c0-5.9-3.3-9.6-10.1-9.6c-1.7,0-2.9,0.1-3.8,0.3V432.9z"/>
		</g>
	</g>
</g>
</svg>
