<?xml version="1.0" encoding="utf-8"?>
<!-- Generator: Adobe Illustrator 21.0.2, SVG Export Plug-In . SVG Version: 6.00 Build 0)  -->
<!DOCTYPE svg PUBLIC "-//W3C//DTD SVG 1.1//EN" "http://www.w3.org/Graphics/SVG/1.1/DTD/svg11.dtd">
<svg version="1.1" id="Ebene_1" xmlns="http://www.w3.org/2000/svg" xmlns:xlink="http://www.w3.org/1999/xlink" x="0px" y="0px"
	 viewBox="0 0 397.4 35.3" style="enable-background:new 0 0 397.4 35.3;" xml:space="preserve">
<style type="text/css">
	.st0{fill:#FFFFFF;}
</style>
<g>
	<path class="st0" d="M7.9,7h-6l0.9-4.6h17.3L19.2,7h-6.1L9.2,27.9H3.9L7.9,7z"/>
	<path class="st0" d="M17.8,27.9l5.1-26.6h5.2l-2,10.5l0.1,0c1.4-1.7,3.2-2.8,5.5-2.8c2.7,0,4.3,1.8,4.3,4.7c0,0.9-0.2,2.3-0.4,3.4
		l-2,10.8h-5.2l2-10.4c0.2-0.7,0.2-1.6,0.2-2.3c0-1.1-0.5-1.9-1.6-1.9c-1.7,0-3.4,2.1-4.1,5.6L23,27.9H17.8z"/>
	<path class="st0" d="M52.3,26.9c-2,0.9-4.3,1.3-6.4,1.3c-5.1,0-7.5-3-7.5-7.5C38.4,15.1,42.1,9,48.6,9c3.6,0,5.9,2.2,6,5.4
		c0,4.8-4.4,6.6-11.1,6.4c0,0.5,0.2,1.4,0.5,2c0.6,0.9,1.7,1.4,3.3,1.4c1.9,0,3.4-0.4,4.8-1.1L52.3,26.9z M47.9,12.9
		c-2.2,0-3.6,2-4,4c3.7,0.1,5.8-0.6,5.8-2.5C49.7,13.6,49,12.9,47.9,12.9z"/>
	<path class="st0" d="M62.5,27.9l2.8-14.6h-2.4l0.8-3.9H66l0.2-0.9c0.4-2.2,1.2-4.4,3-5.9c1.4-1.2,3.3-1.7,5.1-1.7
		c1.3,0,2.2,0.2,2.8,0.5l-1,4.1c-0.5-0.2-1-0.3-1.7-0.3c-1.7,0-2.8,1.6-3.1,3.4l-0.2,0.9h3.6L74,13.3h-3.6l-2.8,14.6H62.5z"/>
	<path class="st0" d="M92.7,9.4l-2.3,12.5c-0.5,2.3-0.8,4.3-1,6h-4.6l0.3-2.9H85c-1.7,2.3-3.8,3.2-5.9,3.2c-2.8,0-4.3-1.7-4.3-4.9
		c0-1.1,0.2-2.2,0.4-3.5l2-10.4h5.2l-1.9,10.1c-0.2,0.9-0.3,1.9-0.3,2.6c0,1.1,0.5,1.9,1.7,1.9c1.7,0,3.4-2,4-5.4l1.7-9.2H92.7z"/>
	<path class="st0" d="M103.7,4.4l-0.9,5h3.8l-0.8,3.9H102l-1.4,6.9c-0.2,0.7-0.3,1.5-0.3,2.1c0,1,0.5,1.5,1.5,1.5
		c0.4,0,0.9,0,1.4-0.1l-0.6,4c-0.8,0.3-2,0.4-3.1,0.4c-3.1,0-4.6-1.6-4.6-4c0-0.9,0.1-2,0.4-3.3l1.5-7.7h-2.3l0.8-3.9h2.3L98.2,6
		L103.7,4.4z"/>
	<path class="st0" d="M124.9,9.4l-2.3,12.5c-0.5,2.3-0.8,4.3-1,6H117l0.3-2.9h-0.1c-1.7,2.3-3.8,3.2-5.9,3.2c-2.8,0-4.3-1.7-4.3-4.9
		c0-1.1,0.2-2.2,0.4-3.5l2-10.4h5.2l-1.9,10.1c-0.2,0.9-0.3,1.9-0.3,2.6c0,1.1,0.5,1.9,1.7,1.9c1.7,0,3.4-2,4-5.4l1.7-9.2H124.9z"/>
	<path class="st0" d="M125.7,27.9l2.2-11.5c0.5-2.6,0.8-5.4,0.9-7h4.5c-0.1,1.2-0.2,2.3-0.3,3.6h0.1c1.3-2.4,3.3-4,5.5-4
		c0.3,0,0.6,0,0.9,0.1l-1,5.1c-0.2,0-0.5,0-0.8,0c-3.1,0-4.8,2.9-5.4,6.3l-1.4,7.4H125.7z"/>
	<path class="st0" d="M153.3,26.9c-2,0.9-4.3,1.3-6.4,1.3c-5.1,0-7.5-3-7.5-7.5c0-5.6,3.7-11.7,10.2-11.7c3.6,0,5.9,2.2,6,5.4
		c0,4.8-4.4,6.6-11.1,6.4c0,0.5,0.2,1.4,0.5,2c0.6,0.9,1.7,1.4,3.3,1.4c1.9,0,3.4-0.4,4.8-1.1L153.3,26.9z M148.9,12.9
		c-2.2,0-3.6,2-4,4c3.7,0.1,5.8-0.6,5.8-2.5C150.7,13.6,150,12.9,148.9,12.9z"/>
	<path class="st0" d="M181,16.3c0,6.5-4.2,12-10.3,12c-4.7,0-7.2-3.2-7.2-7.3c0-6.3,4.2-12,10.4-12C178.8,9,181,12.5,181,16.3z
		 M168.8,20.8c0,1.9,0.8,3.4,2.5,3.4c2.8,0,4.3-4.9,4.3-8.1c0-1.5-0.6-3.1-2.5-3.1C170.4,13,168.8,17.9,168.8,20.8z"/>
	<path class="st0" d="M183,27.9l2.8-14.6h-2.4l0.8-3.9h2.4l0.2-0.9c0.4-2.2,1.2-4.4,3-5.9c1.4-1.2,3.3-1.7,5.1-1.7
		c1.3,0,2.2,0.2,2.8,0.5l-1,4.1c-0.5-0.2-1-0.3-1.7-0.3c-1.7,0-2.8,1.6-3.1,3.4l-0.2,0.9h3.6l-0.7,3.9H191l-2.8,14.6H183z"/>
	<path class="st0" d="M201.3,27.9l2.8-14.6h-2.4l0.8-3.9h2.4l0.2-0.9c0.4-2.2,1.2-4.4,3-5.9c1.4-1.2,3.2-1.7,5.1-1.7
		c1.3,0,2.2,0.2,2.8,0.5l-1,4.1c-0.5-0.2-1-0.3-1.7-0.3c-1.7,0-2.8,1.6-3.1,3.4L210,9.4h3.6l-0.7,3.9h-3.6l-2.8,14.6H201.3z"/>
	<path class="st0" d="M227.1,26.9c-2,0.9-4.3,1.3-6.4,1.3c-5.1,0-7.5-3-7.5-7.5c0-5.6,3.7-11.7,10.2-11.7c3.6,0,5.9,2.2,6,5.4
		c0,4.8-4.4,6.6-11.1,6.4c0,0.5,0.2,1.4,0.5,2c0.6,0.9,1.7,1.4,3.2,1.4c1.9,0,3.4-0.4,4.8-1.1L227.1,26.9z M222.7,12.9
		c-2.2,0-3.6,2-4,4c3.7,0.1,5.8-0.6,5.8-2.5C224.5,13.6,223.9,12.9,222.7,12.9z"/>
	<path class="st0" d="M230.2,27.9l2.2-11.5c0.5-2.6,0.8-5.4,0.9-7h4.5c-0.1,1.2-0.2,2.3-0.3,3.6h0.1c1.3-2.4,3.3-4,5.5-4
		c0.3,0,0.6,0,0.9,0.1l-1,5.1c-0.2,0-0.5,0-0.8,0c-3.1,0-4.8,2.9-5.4,6.3l-1.4,7.4H230.2z"/>
	<path class="st0" d="M254.4,4.4l-0.9,5h3.8l-0.8,3.9h-3.8l-1.4,6.9c-0.2,0.7-0.3,1.5-0.3,2.1c0,1,0.5,1.5,1.5,1.5
		c0.4,0,0.9,0,1.4-0.1l-0.6,4c-0.8,0.3-2,0.4-3.1,0.4c-3.1,0-4.6-1.6-4.6-4c0-0.9,0.1-2,0.4-3.3l1.5-7.7h-2.3l0.8-3.9h2.3L249,6
		L254.4,4.4z"/>
	<path class="st0" d="M256.7,27.9l3.5-18.5h5.3l-3.6,18.5H256.7z M263.5,7.1c-1.5,0-2.5-1.1-2.5-2.6c0-1.7,1.3-3,3-3
		c1.6,0,2.6,1.1,2.6,2.6C266.6,6,265.2,7.1,263.5,7.1L263.5,7.1z"/>
	<path class="st0" d="M266.2,27.9l5.1-26.6h5.2l-5.1,26.6H266.2z"/>
	<path class="st0" d="M275.7,27.9l3.5-18.5h5.3l-3.6,18.5H275.7z M282.5,7.1c-1.5,0-2.5-1.1-2.5-2.6c0-1.7,1.3-3,3-3
		c1.6,0,2.6,1.1,2.6,2.6C285.6,6,284.2,7.1,282.5,7.1L282.5,7.1z"/>
	<path class="st0" d="M285.9,23.2c0.9,0.5,2.6,1.2,4.3,1.1c1.5,0,2.3-0.8,2.3-1.8c0-0.9-0.6-1.6-2.2-2.5c-2-1.1-3.4-2.7-3.4-4.8
		c0-3.7,3.1-6.3,7.7-6.3c2,0,3.6,0.4,4.4,0.9l-1.2,3.7c-0.7-0.3-1.9-0.7-3.2-0.7c-1.5,0-2.4,0.7-2.4,1.7c0,0.8,0.7,1.4,2,2.2
		c2,1.2,3.7,2.8,3.7,5c0,4.2-3.4,6.5-8,6.5c-2.2,0-4.2-0.6-5.1-1.3L285.9,23.2z"/>
	<path class="st0" d="M311.1,27.9c0-1.1,0.2-2.2,0.2-3.5h-0.1c-1.6,2.9-3.8,3.9-5.7,3.9c-3.1,0-5.1-2.5-5.1-6.2
		c0-6,3.7-13.1,12.5-13.1c2.1,0,4.3,0.4,5.7,0.9l-2,9.9c-0.5,2.3-0.8,5.9-0.8,8.2H311.1z M312.7,13.1c-0.4-0.1-0.9-0.2-1.3-0.2
		c-3.4,0-5.7,4.9-5.7,8.1c0,1.8,0.6,3,2,3c1.5,0,3.3-1.9,4.1-6.1L312.7,13.1z"/>
	<path class="st0" d="M329.7,4.4l-0.9,5h3.8l-0.8,3.9H328l-1.4,6.9c-0.2,0.7-0.3,1.5-0.3,2.1c0,1,0.5,1.5,1.5,1.5
		c0.4,0,0.9,0,1.4-0.1l-0.6,4c-0.8,0.3-2,0.4-3.1,0.4c-3.1,0-4.6-1.6-4.6-4c0-0.9,0.1-2,0.4-3.3l1.5-7.7h-2.3l0.8-3.9h2.3l0.6-3.4
		L329.7,4.4z"/>
	<path class="st0" d="M332,27.9l3.5-18.5h5.3l-3.6,18.5H332z M338.7,7.1c-1.5,0-2.5-1.1-2.5-2.6c0-1.7,1.3-3,3-3
		c1.6,0,2.6,1.1,2.6,2.6C341.8,6,340.4,7.1,338.7,7.1L338.7,7.1z"/>
	<path class="st0" d="M359.6,16.3c0,6.5-4.2,12-10.3,12c-4.7,0-7.2-3.2-7.2-7.3c0-6.3,4.2-12,10.4-12C357.5,9,359.6,12.5,359.6,16.3
		z M347.5,20.8c0,1.9,0.8,3.4,2.5,3.4c2.8,0,4.3-4.9,4.3-8.1c0-1.5-0.6-3.1-2.5-3.1C349,13,347.5,17.9,347.5,20.8z"/>
	<path class="st0" d="M361,27.9l2.4-12.5c0.5-2.3,0.7-4.3,1-6h4.6l-0.3,2.8h0.1c1.6-2.2,3.7-3.3,6-3.3c2.9,0,4.4,1.9,4.4,4.8
		c0,0.9-0.2,2.2-0.3,3.3l-2.1,10.9h-5.2l2-10.6c0.1-0.6,0.2-1.4,0.2-2c0-1.2-0.4-2-1.6-2c-1.6,0-3.5,2-4.2,6l-1.6,8.7H361z"/>
	<path class="st0" d="M381.2,25.1c0-2,1.5-3.7,3.5-3.7c1.9,0,3,1.3,3,3.2c0,2.2-1.5,3.7-3.6,3.7C382.3,28.2,381.2,26.9,381.2,25.1z"
		/>
</g>
</svg>
