<?xml version="1.0" encoding="utf-8"?>
<!-- Generator: Adobe Illustrator 24.0.2, SVG Export Plug-In . SVG Version: 6.00 Build 0)  -->
<svg version="1.2" baseProfile="tiny" id="Layer_1" xmlns="http://www.w3.org/2000/svg" xmlns:xlink="http://www.w3.org/1999/xlink"
	 x="0px" y="0px" viewBox="0 0 674.58 556.37" xml:space="preserve">
<g>
	<g>
		<path fill="#FFFFFF" d="M586.14,326.01c0-0.78-0.27-1.32-0.8-1.61c-0.29-0.16-0.81-0.24-1.56-0.24h-1.64v3.74h2.16
			c0.59,0,1.04-0.16,1.36-0.49C585.98,327.08,586.14,326.62,586.14,326.01 M586.83,329.81l2.73,4.97c0.07,0.15,0.07,0.29-0.01,0.41
			c-0.07,0.14-0.19,0.21-0.36,0.21h-2.02c-0.18,0-0.3-0.08-0.37-0.23l-2.58-4.86h-2.07v4.66c0,0.12-0.04,0.23-0.12,0.31
			c-0.08,0.08-0.18,0.12-0.31,0.12h-1.78c-0.12,0-0.23-0.04-0.31-0.12c-0.08-0.08-0.12-0.18-0.12-0.31v-12.79
			c0-0.12,0.04-0.23,0.12-0.31c0.08-0.08,0.18-0.12,0.31-0.12h3.92c1.14,0,1.98,0.11,2.53,0.32c0.75,0.28,1.35,0.76,1.78,1.45
			c0.44,0.69,0.65,1.49,0.65,2.4c0,0.82-0.19,1.55-0.57,2.2c-0.38,0.65-0.89,1.14-1.54,1.46
			C586.77,329.69,586.81,329.76,586.83,329.81z M584.2,318.78c-1.33,0-2.6,0.26-3.81,0.78s-2.25,1.22-3.12,2.09
			c-0.87,0.87-1.57,1.92-2.09,3.12c-0.52,1.21-0.78,2.48-0.78,3.81c0,1.33,0.26,2.6,0.78,3.81c0.52,1.21,1.22,2.25,2.09,3.12
			c0.87,0.87,1.92,1.57,3.12,2.09c1.21,0.52,2.48,0.78,3.81,0.78s2.6-0.26,3.81-0.78c1.21-0.52,2.25-1.22,3.12-2.09
			c0.88-0.87,1.57-1.92,2.09-3.12c0.52-1.21,0.78-2.48,0.78-3.81c0-1.33-0.26-2.6-0.78-3.81c-0.52-1.21-1.22-2.25-2.09-3.12
			c-0.87-0.87-1.92-1.57-3.12-2.09C586.8,319.04,585.53,318.78,584.2,318.78z M596.13,328.59c0,1.62-0.32,3.16-0.95,4.64
			c-0.63,1.47-1.48,2.74-2.54,3.81c-1.07,1.07-2.34,1.91-3.81,2.54c-1.47,0.63-3.02,0.95-4.64,0.95c-1.62,0-3.16-0.32-4.64-0.95
			c-1.47-0.63-2.74-1.48-3.81-2.54c-1.07-1.07-1.91-2.34-2.54-3.81c-0.63-1.47-0.95-3.02-0.95-4.64s0.32-3.16,0.95-4.64
			c0.63-1.47,1.48-2.74,2.54-3.81c1.07-1.07,2.34-1.91,3.81-2.54c1.47-0.63,3.02-0.95,4.64-0.95c1.62,0,3.16,0.32,4.64,0.95
			c1.47,0.63,2.74,1.48,3.81,2.54c1.07,1.07,1.91,2.34,2.54,3.81C595.82,325.42,596.13,326.97,596.13,328.59z"/>
	</g>
</g>
<path fill="#FFFFFF" d="M187.51,446.52h-56.63l-10.53,26.21H77.52l56.07-146.09c2.31-6.03,8.1-10.01,14.56-10.01h33.51l58.74,156.09
	h-43.29L187.51,446.52z M176.75,415.63l-17.55-50.55l-17.08,50.55H176.75z M243.07,450.9V316.64h53.12
	c15.68,0,41.89,2.11,62.02,21.53c18.25,17.55,21.76,40.02,21.76,56.87c0,20.59-5.15,38.85-20.36,54.06
	c-12.4,12.4-33.23,23.64-59.91,23.64h-34.8C252.84,472.73,243.07,462.96,243.07,450.9z M283.55,438.33h8.19
	c9.83,0,23.64-0.94,34.17-11.23c5.15-4.91,11.93-14.74,11.93-32.06c0-14.51-4.45-26.91-12.17-34.17c-9.59-8.89-22.23-9.83-32.3-9.83
	h-9.83V438.33z M380.05,472.73l26.45-156.09h40.02l31.59,70.21l33.47-70.21h27.06c7.72,0,14.28,5.65,15.42,13.28l21.41,142.81
	h-40.49l-11.47-89.87l-35.64,64.85c-4.29,7.29-14.84,7.25-19.09-0.06l-35.13-64.79l-13.34,89.87H380.05z"/>
<g>
	<linearGradient id="SVGID_1_" gradientUnits="userSpaceOnUse" x1="152.6757" y1="184.153" x2="531.2856" y2="184.153">
		<stop  offset="0" style="stop-color:#A6CE39"/>
		<stop  offset="1" style="stop-color:#11B04B"/>
	</linearGradient>
	<path fill="url(#SVGID_1_)" d="M520.79,83.34H348.95c-73.46,0-136.04,33.23-161.76,100.6l-33.95,88.91
		c-2.18,5.72,2.35,12.11,8.58,12.11h174.62c72.95,0,136.65-43.27,162.19-110.16l32.03-77.54C533.15,90.69,527.95,83.34,520.79,83.34
		z M466.26,160.57c-20.81,54.51-72.68,89.74-132.13,89.74h-118.1c24.73-28.32,62.83-48.64,107.86-48.64h23.92
		c19.14,0,45.87-11.17,52.87-34.66h-20.22h-58.41c-38.28,0-74,11.84-103.09,32.7l0.74-1.94C240.59,143.06,291.12,118,350.79,118
		h134.15L466.26,160.57z"/>
</g>
</svg>
